<svg aria-hidden="true" style="position: absolute; width: 0; height: 0; overflow: hidden;" version="1.1" xmlns="http://www.w3.org/2000/svg" xmlns:xlink="http://www.w3.org/1999/xlink">
<defs>
<symbol id="icon-play" viewBox="0 0 27 32">
<path d="M26.249 16.565l-24.962 13.872c-0.288 0.163-0.539 0.182-0.752 0.056-0.201-0.125-0.301-0.351-0.301-0.677v-27.669c0-0.326 0.1-0.551 0.301-0.677 0.213-0.125 0.464-0.107 0.752 0.056l24.962 13.872c0.288 0.163 0.432 0.357 0.432 0.583s-0.144 0.42-0.432 0.583z"></path>
</symbol>
<symbol id="icon-logo-header" viewBox="0 0 99 32">
<path d="M8.47 8.415h-5.040v3.169h5.954v2.465h-9.159v-13.295h9.177v2.475h-5.972v2.803h5.040v2.383zM15.893 5.173l2.173-4.42h3.662l-3.716 6.593 3.817 6.702h-3.698l-2.237-4.502-2.237 4.502h-3.689l3.808-6.702-3.707-6.593h3.653l2.173 4.42zM26.329 9.538v4.511h-3.205v-13.295h5.305c1.017 0 1.915 0.189 2.694 0.566 0.785 0.371 1.391 0.904 1.817 1.598 0.432 0.688 0.648 1.47 0.648 2.347 0 1.297-0.466 2.335-1.397 3.114-0.925 0.773-2.198 1.16-3.817 1.16h-2.045zM26.329 7.063h2.1c0.621 0 1.093-0.155 1.415-0.466 0.329-0.31 0.493-0.749 0.493-1.315 0-0.621-0.167-1.117-0.502-1.488s-0.791-0.56-1.37-0.566h-2.137v3.835zM38.757 11.583h5.579v2.465h-8.784v-13.295h3.205v10.83zM56.608 7.675c0 1.297-0.24 2.444-0.721 3.443s-1.166 1.768-2.055 2.31c-0.883 0.536-1.89 0.804-3.022 0.804s-2.137-0.259-3.013-0.776c-0.877-0.523-1.561-1.269-2.055-2.237-0.487-0.968-0.743-2.079-0.767-3.333v-0.749c0-1.303 0.237-2.45 0.712-3.442 0.481-0.998 1.166-1.768 2.055-2.31 0.895-0.542 1.911-0.813 3.050-0.813 1.126 0 2.131 0.268 3.013 0.804s1.568 1.3 2.055 2.292c0.493 0.986 0.743 2.118 0.749 3.397v0.612zM53.348 7.118c0-1.321-0.222-2.322-0.667-3.004-0.438-0.688-1.068-1.032-1.89-1.032-1.607 0-2.456 1.205-2.548 3.616l-0.009 0.977c0 1.303 0.216 2.304 0.648 3.004s1.074 1.050 1.927 1.050c0.81 0 1.434-0.344 1.872-1.032s0.66-1.677 0.667-2.968v-0.612zM63.447 9.355h-1.735v4.693h-3.205v-13.295h5.232c1.577 0 2.809 0.35 3.698 1.050s1.333 1.689 1.333 2.968c0 0.925-0.189 1.692-0.566 2.301-0.371 0.609-0.956 1.102-1.753 1.479l2.776 5.36v0.137h-3.433l-2.347-4.693zM61.712 6.881h2.027c0.609 0 1.065-0.158 1.37-0.475 0.31-0.323 0.466-0.77 0.466-1.342s-0.155-1.020-0.466-1.342c-0.31-0.329-0.767-0.493-1.37-0.493h-2.027v3.653zM79.198 8.415h-5.040v3.169h5.953v2.465h-9.159v-13.295h9.177v2.475h-5.972v2.803h5.040v2.383z"></path>
<path d="M3.639 31.22h-3.196v-13.295h3.196v13.295zM17.217 31.22h-3.187l-4.712-8.273v8.273h-3.205v-13.295h3.205l4.703 8.273v-8.273h3.196v13.295zM19.49 31.22v-13.295h4.283c1.175 0 2.231 0.268 3.169 0.804 0.937 0.53 1.668 1.281 2.192 2.255 0.53 0.968 0.797 2.054 0.803 3.26v0.612c0 1.218-0.259 2.31-0.776 3.278-0.511 0.962-1.236 1.717-2.173 2.265-0.931 0.542-1.972 0.816-3.123 0.822h-4.374zM22.695 20.399v8.355h1.114c0.919 0 1.625-0.326 2.118-0.977 0.493-0.657 0.74-1.631 0.74-2.922v-0.575c0-1.285-0.247-2.252-0.74-2.904s-1.211-0.977-2.155-0.977h-1.077zM43.085 24.846c0 1.297-0.24 2.444-0.721 3.443s-1.166 1.768-2.055 2.31c-0.883 0.536-1.89 0.804-3.022 0.804s-2.137-0.259-3.013-0.776c-0.877-0.523-1.562-1.269-2.055-2.237-0.487-0.968-0.743-2.079-0.767-3.333v-0.749c0-1.303 0.237-2.45 0.712-3.442 0.481-0.998 1.166-1.768 2.055-2.31 0.895-0.542 1.911-0.813 3.050-0.813 1.126 0 2.131 0.268 3.013 0.804s1.568 1.3 2.055 2.292c0.493 0.986 0.743 2.118 0.749 3.397v0.612zM39.825 24.289c0-1.321-0.222-2.322-0.667-3.004-0.438-0.688-1.068-1.032-1.89-1.032-1.607 0-2.456 1.205-2.548 3.616l-0.009 0.977c0 1.303 0.216 2.304 0.648 3.004s1.074 1.050 1.927 1.050c0.81 0 1.434-0.344 1.872-1.032s0.661-1.677 0.667-2.968v-0.612zM56.087 31.22h-3.187l-4.712-8.273v8.273h-3.205v-13.295h3.205l4.703 8.273v-8.273h3.196v13.295zM66.606 25.585h-5.040v3.169h5.954v2.465h-9.159v-13.295h9.177v2.475h-5.972v2.803h5.040v2.383zM75.929 27.686c0-0.469-0.167-0.834-0.502-1.096-0.329-0.262-0.91-0.533-1.744-0.813s-1.516-0.551-2.045-0.813c-1.723-0.846-2.584-2.009-2.584-3.488 0-0.737 0.213-1.385 0.639-1.945 0.432-0.566 1.041-1.004 1.826-1.315 0.785-0.317 1.668-0.475 2.648-0.475 0.956 0 1.811 0.17 2.566 0.511 0.761 0.341 1.352 0.828 1.771 1.461 0.42 0.627 0.63 1.345 0.63 2.155h-3.196c0-0.542-0.167-0.962-0.502-1.26-0.329-0.298-0.776-0.447-1.342-0.447-0.572 0-1.026 0.128-1.361 0.384-0.329 0.25-0.493 0.569-0.493 0.959 0 0.341 0.183 0.651 0.548 0.931 0.365 0.274 1.008 0.56 1.927 0.858 0.919 0.292 1.674 0.609 2.265 0.95 1.437 0.828 2.155 1.969 2.155 3.424 0 1.163-0.438 2.076-1.315 2.739s-2.079 0.995-3.607 0.995c-1.078 0-2.055-0.192-2.931-0.575-0.87-0.39-1.528-0.919-1.972-1.589-0.438-0.676-0.657-1.452-0.657-2.329h3.214c0 0.712 0.183 1.239 0.548 1.58 0.371 0.335 0.971 0.502 1.799 0.502 0.53 0 0.947-0.113 1.251-0.338 0.31-0.231 0.466-0.554 0.466-0.968zM84.439 31.22h-3.196v-13.295h3.196v13.295zM94.629 28.736h-4.392l-0.767 2.484h-3.424l4.876-13.295h3.013l4.912 13.295h-3.442l-0.777-2.484zM91.004 26.261h2.857l-1.433-4.611-1.424 4.611z"></path>
</symbol>
<symbol id="icon-facebook" viewBox="0 0 17 32">
<path d="M11.642 32v-14.4h4.663l0.762-6.4h-5.425v-3.117c0-1.648 0.045-3.283 2.501-3.283h2.488v-4.576c0-0.069-2.137-0.224-4.299-0.224-4.515 0-7.343 2.651-7.343 7.52v3.68h-4.989v6.4h4.989v14.4h6.652z"></path>
</symbol>
<symbol id="icon-google" viewBox="0 0 32 32">
<path d="M31.715 12.806h-15.376c0 1.599 0 4.797-0.010 6.396h8.91c-0.341 1.599-1.552 3.838-3.262 4.965-0.002-0.002-0.003 0.010-0.007 0.008-2.274 1.502-5.275 1.842-7.504 1.395-3.493-0.694-6.257-3.227-7.379-6.444 0.006-0.005 0.011-0.050 0.016-0.053-0.702-1.996-0.702-4.668 0-6.267h-0.002c0.905-2.939 3.753-5.621 7.25-6.355 2.813-0.596 5.988 0.050 8.322 2.234 0.31-0.304 4.297-4.196 4.596-4.513-7.976-7.223-20.746-4.682-25.525 4.645h-0.002c0 0 0.002 0-0.008 0.018-2.364 4.581-2.266 9.98 0.016 14.342-0.007 0.005-0.011 0.008-0.016 0.013 2.068 4.014 5.832 7.092 10.367 8.264 4.818 1.263 10.949 0.4 15.056-3.315 0.002 0.002 0.003 0.003 0.005 0.005 3.48-3.134 5.646-8.474 4.552-15.338z"></path>
</symbol>
<symbol id="icon-linkedin" viewBox="0 0 32 32">
<path d="M32 32h-6.154v-11.207c0-3.074-1.303-4.789-3.64-4.789-2.543 0-4.052 1.787-4.052 4.789v11.207h-6.154v-20.815h6.154v2.341c0 0 1.931-3.526 6.282-3.526 4.352 0 7.565 2.764 7.565 8.483 0 5.718 0 13.517 0 13.517zM3.001 6c-1.658 0-3.001-1.344-3.001-3.001 0-1.656 1.343-2.999 3.001-2.999 1.656 0 2.999 1.344 2.999 2.999 0.001 1.657-1.343 3.001-2.999 3.001zM0 32h6v-20h-6v20z"></path>
</symbol>
<symbol id="icon-logo-footer" viewBox="0 0 107 32">
<path d="M9.169 9.079h-5.438v3.419h6.424v2.66h-9.882v-14.345h9.902v2.67h-6.443v3.025h5.438v2.571zM17.178 5.582l2.345-4.768h3.951l-4.010 7.113 4.118 7.232h-3.99l-2.414-4.857-2.414 4.857h-3.98l4.108-7.232-4-7.113h3.941l2.345 4.768zM28.439 10.291v4.867h-3.458v-14.345h5.724c1.097 0 2.066 0.204 2.906 0.611 0.847 0.401 1.501 0.975 1.961 1.724 0.466 0.742 0.699 1.586 0.699 2.532 0 1.399-0.502 2.519-1.507 3.36-0.998 0.834-2.371 1.251-4.118 1.251h-2.207zM28.439 7.621h2.266c0.67 0 1.179-0.168 1.527-0.502 0.355-0.335 0.532-0.808 0.532-1.419 0-0.67-0.181-1.205-0.542-1.606s-0.854-0.604-1.478-0.611h-2.305v4.138zM41.847 12.498h6.020v2.66h-9.478v-14.345h3.458v11.685zM61.108 8.281c0 1.399-0.259 2.637-0.778 3.714s-1.258 1.908-2.217 2.493c-0.952 0.578-2.039 0.867-3.261 0.867s-2.305-0.279-3.251-0.837c-0.946-0.565-1.685-1.369-2.217-2.414-0.525-1.044-0.801-2.243-0.828-3.596v-0.808c0-1.406 0.256-2.644 0.769-3.714 0.519-1.077 1.258-1.908 2.217-2.493 0.966-0.585 2.062-0.877 3.291-0.877 1.215 0 2.299 0.289 3.251 0.867s1.691 1.402 2.217 2.473c0.532 1.064 0.801 2.286 0.808 3.665v0.66zM57.591 7.68c0-1.425-0.24-2.506-0.719-3.241-0.473-0.742-1.153-1.113-2.039-1.113-1.734 0-2.65 1.301-2.749 3.901l-0.010 1.054c0 1.406 0.233 2.486 0.7 3.241s1.159 1.133 2.079 1.133c0.874 0 1.547-0.371 2.020-1.113s0.713-1.81 0.719-3.202v-0.66zM68.487 10.094h-1.872v5.064h-3.458v-14.345h5.645c1.701 0 3.031 0.378 3.99 1.133s1.438 1.823 1.438 3.202c0 0.998-0.204 1.826-0.611 2.483-0.401 0.657-1.031 1.189-1.892 1.596l2.995 5.783v0.148h-3.704l-2.532-5.064zM66.615 7.424h2.187c0.657 0 1.149-0.171 1.478-0.512 0.335-0.348 0.502-0.831 0.502-1.448s-0.168-1.1-0.502-1.448c-0.335-0.355-0.828-0.532-1.478-0.532h-2.187v3.941zM85.481 9.079h-5.438v3.419h6.424v2.66h-9.882v-14.345h9.901v2.67h-6.443v3.025h5.438v2.571zM3.957 31.158h-3.448v-14.345h3.448v14.345zM18.607 31.158h-3.438l-5.084-8.926v8.926h-3.458v-14.345h3.458l5.074 8.926v-8.926h3.448v14.345zM21.060 31.158v-14.345h4.621c1.268 0 2.407 0.289 3.419 0.867 1.011 0.571 1.8 1.383 2.365 2.434 0.571 1.044 0.86 2.217 0.867 3.517v0.66c0 1.314-0.279 2.493-0.837 3.537-0.552 1.038-1.333 1.852-2.345 2.443-1.005 0.585-2.128 0.88-3.369 0.887h-4.719zM24.518 19.483v9.015h1.202c0.992 0 1.754-0.351 2.286-1.054 0.532-0.709 0.798-1.76 0.798-3.153v-0.621c0-1.386-0.266-2.43-0.798-3.133s-1.307-1.054-2.325-1.054h-1.163zM46.517 24.281c0 1.399-0.259 2.637-0.778 3.714s-1.258 1.908-2.217 2.493c-0.952 0.578-2.039 0.867-3.261 0.867s-2.305-0.279-3.251-0.837c-0.946-0.565-1.685-1.369-2.217-2.414-0.525-1.044-0.801-2.243-0.828-3.596v-0.808c0-1.406 0.256-2.644 0.769-3.714 0.519-1.077 1.258-1.908 2.217-2.493 0.965-0.585 2.062-0.877 3.291-0.877 1.215 0 2.299 0.289 3.251 0.867s1.691 1.402 2.217 2.473c0.532 1.064 0.801 2.286 0.808 3.665v0.66zM43 23.68c0-1.425-0.24-2.506-0.719-3.241-0.473-0.742-1.153-1.113-2.039-1.113-1.734 0-2.65 1.3-2.749 3.901l-0.010 1.054c0 1.406 0.233 2.486 0.699 3.241s1.159 1.133 2.079 1.133c0.874 0 1.547-0.371 2.020-1.113s0.713-1.81 0.719-3.202v-0.66zM60.546 31.158h-3.438l-5.084-8.926v8.926h-3.458v-14.345h3.458l5.074 8.926v-8.926h3.448v14.345zM71.895 25.079h-5.438v3.419h6.424v2.66h-9.882v-14.345h9.901v2.67h-6.443v3.025h5.438v2.571zM81.954 27.345c0-0.506-0.181-0.9-0.542-1.182-0.355-0.282-0.982-0.575-1.882-0.877s-1.635-0.594-2.207-0.877c-1.859-0.913-2.788-2.168-2.788-3.764 0-0.795 0.23-1.494 0.69-2.099 0.466-0.611 1.123-1.084 1.97-1.419 0.847-0.342 1.8-0.512 2.857-0.512 1.031 0 1.954 0.184 2.768 0.552 0.821 0.368 1.459 0.893 1.912 1.576 0.453 0.677 0.68 1.452 0.68 2.325h-3.448c0-0.585-0.181-1.038-0.542-1.36-0.355-0.322-0.837-0.483-1.448-0.483-0.617 0-1.107 0.138-1.468 0.414-0.355 0.269-0.532 0.614-0.532 1.034 0 0.368 0.197 0.703 0.591 1.005 0.394 0.296 1.087 0.604 2.079 0.926 0.992 0.315 1.806 0.657 2.443 1.025 1.55 0.893 2.325 2.125 2.325 3.695 0 1.254-0.473 2.24-1.419 2.956s-2.243 1.074-3.892 1.074c-1.163 0-2.217-0.207-3.163-0.621-0.939-0.42-1.649-0.992-2.128-1.714-0.473-0.729-0.709-1.566-0.709-2.512h3.468c0 0.768 0.197 1.337 0.591 1.704 0.401 0.361 1.048 0.542 1.941 0.542 0.571 0 1.021-0.122 1.35-0.365 0.335-0.25 0.502-0.598 0.502-1.044zM91.136 31.158h-3.448v-14.345h3.448v14.345zM102.131 28.478h-4.739l-0.827 2.68h-3.695l5.261-14.345h3.251l5.3 14.345h-3.715l-0.837-2.68zM98.219 25.808h3.084l-1.547-4.975-1.537 4.975z"></path>
</symbol>
<symbol id="icon-Strilka" viewBox="0 0 57 32">
<path d="M54.243 24.186c1.498 1.498 1.498 3.928 0 5.426s-3.928 1.498-5.426 0l-20.979-20.979-21.288 21.288c-1.498 1.498-3.928 1.498-5.426 0s-1.498-3.928 0-5.426l23.062-23.062c0.764-0.764 1.769-1.138 2.77-1.123 1.4-0.6 3.083-0.328 4.225 0.814l23.062 23.062z"></path>
</symbol>
<symbol id="icon-input" viewBox="0 0 34 32">
<path d="M23.788 19.556h-1.404l-0.498-0.48c1.742-2.027 2.791-4.658 2.791-7.52 0-6.382-5.173-11.556-11.556-11.556s-11.556 5.173-11.556 11.556c0 6.382 5.173 11.556 11.556 11.556 2.862 0 5.493-1.049 7.52-2.791l0.48 0.498v1.404l8.889 8.871 2.649-2.649-8.871-8.889zM13.121 19.556c-4.427 0-8-3.573-8-8s3.573-8 8-8c4.427 0 8 3.573 8 8s-3.573 8-8 8z"></path>
</symbol>
<symbol id="icon-burger" viewBox="0 0 51 32">
<path d="M2.441 32h48.025v-5.333h-48.025v5.333zM2.441 18.667h48.025v-5.333h-48.025v5.333zM2.441 0v5.333h48.025v-5.333h-48.025z"></path>
</symbol>
<symbol id="icon-Flowers" viewBox="0 0 16 32">
<path d="M16.185 10.001v-5c0-0.552-0.448-1-1-1h-1.001v-3c0-0.552-0.448-1-1.001-1-1.416 0-3.585-0.108-6.132 1.416-1.583-0.471-2.702-0.416-3.873-0.416-0.553 0-1 0.448-1 1v2h-1c-0.553 0-1 0.448-1 1v5c0 4.072 3.061 7.444 7.003 7.937v13.062c0 0.552 0.448 1 1.001 1s1.001-0.448 1.001-1v-3.5h1.501c3.034 0 5.503-2.467 5.503-5.5v-1.5c0-0.552-0.448-1-1-1h-2.501c-1.329 0-2.55 0.473-3.502 1.26v-2.823c3.937-0.487 7.003-3.842 7.003-7.937zM14.184 10.001c0 1.78-0.787 3.387-2.032 4.489 0.020-0.16 0.031-0.323 0.031-0.489 0-2.532-0.947-4.847-2.505-6.611 1.321-0.901 2.887-1.389 4.506-1.389v4zM12.183 2.002v2.202c-0.185 0.038-0.369 0.081-0.551 0.128-0.649-0.726-1.389-1.345-2.197-1.845 0.874-0.319 1.801-0.485 2.748-0.485zM4.179 3.002c1.988 0 3.918 0.725 5.419 2.111-0.495 0.256-0.97 0.553-1.42 0.891-1.163-0.874-2.522-1.501-3.999-1.802v-1.201zM2.178 10.001v-4c4.413 0 8.004 3.589 8.004 8 0 1.117-0.923 2.028-2.053 1.999-3.515-0.087-5.95-2.878-5.95-5.999zM12.683 21.501h1.501v0.5c0 1.93-1.571 3.5-3.502 3.5h-1.501v-0.5c0-1.93 1.571-3.5 3.502-3.5z"></path>
</symbol>
</defs>
</svg>
